<svg id="visual" viewBox="0 0 960 300" width="960" height="300" xmlns="http://www.w3.org/2000/svg" xmlns:xlink="http://www.w3.org/1999/xlink" version="1.1"><rect x="0" y="0" width="960" height="300" fill="#1b1a17"></rect><path d="M0 84L17.8 87C35.7 90 71.3 96 106.8 91.8C142.3 87.7 177.7 73.3 213.2 73.3C248.7 73.3 284.3 87.7 320 92.8C355.7 98 391.3 94 426.8 95.3C462.3 96.7 497.7 103.3 533.2 103.7C568.7 104 604.3 98 640 92.8C675.7 87.7 711.3 83.3 746.8 86.3C782.3 89.3 817.7 99.7 853.2 101.8C888.7 104 924.3 98 942.2 95L960 92L960 0L942.2 0C924.3 0 888.7 0 853.2 0C817.7 0 782.3 0 746.8 0C711.3 0 675.7 0 640 0C604.3 0 568.7 0 533.2 0C497.7 0 462.3 0 426.8 0C391.3 0 355.7 0 320 0C284.3 0 248.7 0 213.2 0C177.7 0 142.3 0 106.8 0C71.3 0 35.7 0 17.8 0L0 0Z" fill="#c62368"></path><path d="M0 42L17.8 45.3C35.7 48.7 71.3 55.3 106.8 55.2C142.3 55 177.7 48 213.2 47.3C248.7 46.7 284.3 52.3 320 55.7C355.7 59 391.3 60 426.8 63.2C462.3 66.3 497.7 71.7 533.2 70.5C568.7 69.3 604.3 61.7 640 58.3C675.7 55 711.3 56 746.8 58.5C782.3 61 817.7 65 853.2 66.3C888.7 67.7 924.3 66.3 942.2 65.7L960 65L960 0L942.2 0C924.3 0 888.7 0 853.2 0C817.7 0 782.3 0 746.8 0C711.3 0 675.7 0 640 0C604.3 0 568.7 0 533.2 0C497.7 0 462.3 0 426.8 0C391.3 0 355.7 0 320 0C284.3 0 248.7 0 213.2 0C177.7 0 142.3 0 106.8 0C71.3 0 35.7 0 17.8 0L0 0Z" fill="#dc1c5f"></path><path d="M0 45L17.8 48C35.7 51 71.3 57 106.8 56C142.3 55 177.7 47 213.2 42.8C248.7 38.7 284.3 38.3 320 37.5C355.7 36.7 391.3 35.3 426.8 36C462.3 36.7 497.7 39.3 533.2 37.7C568.7 36 604.3 30 640 31C675.7 32 711.3 40 746.8 45C782.3 50 817.7 52 853.2 51.2C888.7 50.3 924.3 46.7 942.2 44.8L960 43L960 0L942.2 0C924.3 0 888.7 0 853.2 0C817.7 0 782.3 0 746.8 0C711.3 0 675.7 0 640 0C604.3 0 568.7 0 533.2 0C497.7 0 462.3 0 426.8 0C391.3 0 355.7 0 320 0C284.3 0 248.7 0 213.2 0C177.7 0 142.3 0 106.8 0C71.3 0 35.7 0 17.8 0L0 0Z" fill="#ef1b52"></path><path d="M0 15L17.8 18C35.7 21 71.3 27 106.8 28.8C142.3 30.7 177.7 28.3 213.2 25C248.7 21.7 284.3 17.3 320 18.5C355.7 19.7 391.3 26.3 426.8 26.3C462.3 26.3 497.7 19.7 533.2 20.3C568.7 21 604.3 29 640 27.8C675.7 26.7 711.3 16.3 746.8 14.5C782.3 12.7 817.7 19.3 853.2 21.5C888.7 23.7 924.3 21.3 942.2 20.2L960 19L960 0L942.2 0C924.3 0 888.7 0 853.2 0C817.7 0 782.3 0 746.8 0C711.3 0 675.7 0 640 0C604.3 0 568.7 0 533.2 0C497.7 0 462.3 0 426.8 0C391.3 0 355.7 0 320 0C284.3 0 248.7 0 213.2 0C177.7 0 142.3 0 106.8 0C71.3 0 35.7 0 17.8 0L0 0Z" fill="#ff2442"></path></svg>