<svg id="visual" viewBox="0 0 960 100" width="960" height="100" xmlns="http://www.w3.org/2000/svg" xmlns:xlink="http://www.w3.org/1999/xlink" version="1.1"><path d="M0 16L17.8 15C35.7 14 71.3 12 106.8 12C142.3 12 177.7 14 213.2 14.3C248.7 14.7 284.3 13.3 320 11.7C355.7 10 391.3 8 426.8 7.8C462.3 7.7 497.7 9.3 533.2 10.3C568.7 11.3 604.3 11.7 640 12.2C675.7 12.7 711.3 13.3 746.8 14C782.3 14.7 817.7 15.3 853.2 14.8C888.7 14.3 924.3 12.7 942.2 11.8L960 11L960 0L942.2 0C924.3 0 888.7 0 853.2 0C817.7 0 782.3 0 746.8 0C711.3 0 675.7 0 640 0C604.3 0 568.7 0 533.2 0C497.7 0 462.3 0 426.8 0C391.3 0 355.7 0 320 0C284.3 0 248.7 0 213.2 0C177.7 0 142.3 0 106.8 0C71.3 0 35.7 0 17.8 0L0 0Z" fill="#1e6f5c"></path><path d="M0 32L17.8 31.8C35.7 31.7 71.3 31.3 106.8 31.7C142.3 32 177.7 33 213.2 33.3C248.7 33.7 284.3 33.3 320 30.3C355.7 27.3 391.3 21.7 426.8 18.8C462.3 16 497.7 16 533.2 17.2C568.7 18.3 604.3 20.7 640 21C675.7 21.3 711.3 19.7 746.8 19C782.3 18.3 817.7 18.7 853.2 19.2C888.7 19.7 924.3 20.3 942.2 20.7L960 21L960 9L942.2 9.8C924.3 10.7 888.7 12.3 853.2 12.8C817.7 13.3 782.3 12.7 746.8 12C711.3 11.3 675.7 10.7 640 10.2C604.3 9.7 568.7 9.3 533.2 8.3C497.7 7.3 462.3 5.7 426.8 5.8C391.3 6 355.7 8 320 9.7C284.3 11.3 248.7 12.7 213.2 12.3C177.7 12 142.3 10 106.8 10C71.3 10 35.7 12 17.8 13L0 14Z" fill="#007f7c"></path><path d="M0 69L17.8 64.2C35.7 59.3 71.3 49.7 106.8 47.7C142.3 45.7 177.7 51.3 213.2 56.3C248.7 61.3 284.3 65.7 320 67.2C355.7 68.7 391.3 67.3 426.8 64.7C462.3 62 497.7 58 533.2 53C568.7 48 604.3 42 640 46.7C675.7 51.3 711.3 66.7 746.8 73.7C782.3 80.7 817.7 79.3 853.2 74.7C888.7 70 924.3 62 942.2 58L960 54L960 19L942.2 18.7C924.3 18.3 888.7 17.7 853.2 17.2C817.7 16.7 782.3 16.3 746.8 17C711.3 17.7 675.7 19.3 640 19C604.3 18.7 568.7 16.3 533.2 15.2C497.7 14 462.3 14 426.8 16.8C391.3 19.7 355.7 25.3 320 28.3C284.3 31.3 248.7 31.7 213.2 31.3C177.7 31 142.3 30 106.8 29.7C71.3 29.3 35.7 29.7 17.8 29.8L0 30Z" fill="#008e9d"></path><path d="M0 74L17.8 69.3C35.7 64.7 71.3 55.3 106.8 55.2C142.3 55 177.7 64 213.2 70.5C248.7 77 284.3 81 320 82.3C355.7 83.7 391.3 82.3 426.8 79C462.3 75.7 497.7 70.3 533.2 64.7C568.7 59 604.3 53 640 56.3C675.7 59.7 711.3 72.3 746.8 78C782.3 83.7 817.7 82.3 853.2 79.2C888.7 76 924.3 71 942.2 68.5L960 66L960 52L942.2 56C924.3 60 888.7 68 853.2 72.7C817.7 77.3 782.3 78.7 746.8 71.7C711.3 64.7 675.7 49.3 640 44.7C604.3 40 568.7 46 533.2 51C497.7 56 462.3 60 426.8 62.7C391.3 65.3 355.7 66.7 320 65.2C284.3 63.7 248.7 59.3 213.2 54.3C177.7 49.3 142.3 43.7 106.8 45.7C71.3 47.7 35.7 57.3 17.8 62.2L0 67Z" fill="#009cbe"></path><path d="M0 95L17.8 90.5C35.7 86 71.3 77 106.8 74.7C142.3 72.3 177.7 76.7 213.2 79.8C248.7 83 284.3 85 320 85.3C355.7 85.7 391.3 84.3 426.8 81.7C462.3 79 497.7 75 533.2 71.7C568.7 68.3 604.3 65.7 640 68.8C675.7 72 711.3 81 746.8 85.8C782.3 90.7 817.7 91.3 853.2 90.5C888.7 89.7 924.3 87.3 942.2 86.2L960 85L960 64L942.2 66.5C924.3 69 888.7 74 853.2 77.2C817.7 80.3 782.3 81.7 746.8 76C711.3 70.3 675.7 57.7 640 54.3C604.3 51 568.7 57 533.2 62.7C497.7 68.3 462.3 73.7 426.8 77C391.3 80.3 355.7 81.7 320 80.3C284.3 79 248.7 75 213.2 68.5C177.7 62 142.3 53 106.8 53.2C71.3 53.3 35.7 62.7 17.8 67.3L0 72Z" fill="#00a8df"></path><path d="M0 101L17.8 101C35.7 101 71.3 101 106.8 101C142.3 101 177.7 101 213.2 101C248.7 101 284.3 101 320 101C355.7 101 391.3 101 426.8 101C462.3 101 497.7 101 533.2 101C568.7 101 604.3 101 640 101C675.7 101 711.3 101 746.8 101C782.3 101 817.7 101 853.2 101C888.7 101 924.3 101 942.2 101L960 101L960 83L942.2 84.2C924.3 85.3 888.7 87.7 853.2 88.5C817.7 89.3 782.3 88.7 746.8 83.8C711.3 79 675.7 70 640 66.8C604.3 63.7 568.7 66.3 533.2 69.7C497.7 73 462.3 77 426.8 79.7C391.3 82.3 355.7 83.7 320 83.3C284.3 83 248.7 81 213.2 77.8C177.7 74.7 142.3 70.3 106.8 72.7C71.3 75 35.7 84 17.8 88.5L0 93Z" fill="#3db2ff"></path></svg>